<svg xmlns="http://www.w3.org/2000/svg" width="16" height="16" viewBox="0 0 16 16" shape-rendering="crispEdges"><style>.c-o{fill:#22142b}.c-s{fill:#f0c090}.c-h{fill:#ffe0b0}.c-r{fill:#c03040}.c-d{fill:#801830}.c-b{fill:#3060c0}.c-w{fill:#ffffff}</style><style>.c-r{fill:#2a8040}.c-d{fill:#185028}</style><g><rect class="c-o" x="6" y="0" width="4" height="1"/><rect class="c-o" x="5" y="1" width="1" height="1"/><rect class="c-s" x="6" y="1" width="4" height="1"/><rect class="c-o" x="10" y="1" width="1" height="1"/><rect class="c-o" x="4" y="2" width="1" height="1"/><rect class="c-s" x="5" y="2" width="1" height="1"/><rect class="c-h" x="6" y="2" width="2" height="1"/><rect class="c-s" x="8" y="2" width="3" height="1"/><rect class="c-o" x="11" y="2" width="1" height="1"/><rect class="c-o" x="4" y="3" width="1" height="1"/><rect class="c-s" x="5" y="3" width="2" height="1"/><rect class="c-w" x="7" y="3" width="1" height="1"/><rect class="c-s" x="8" y="3" width="1" height="1"/><rect class="c-w" x="9" y="3" width="1" height="1"/><rect class="c-s" x="10" y="3" width="1" height="1"/><rect class="c-o" x="11" y="3" width="1" height="1"/><rect class="c-o" x="4" y="4" width="1" height="1"/><rect class="c-s" x="5" y="4" width="6" height="1"/><rect class="c-o" x="11" y="4" width="1" height="1"/><rect class="c-o" x="5" y="5" width="1" height="1"/><rect class="c-s" x="6" y="5" width="4" height="1"/><rect class="c-o" x="10" y="5" width="1" height="1"/><rect class="c-o" x="4" y="6" width="2" height="1"/><rect class="c-r" x="6" y="6" width="4" height="1"/><rect class="c-o" x="10" y="6" width="2" height="1"/><rect class="c-o" x="3" y="7" width="1" height="1"/><rect class="c-r" x="4" y="7" width="6" height="1"/><rect class="c-d" x="10" y="7" width="2" height="1"/><rect class="c-o" x="12" y="7" width="1" height="1"/><rect class="c-o" x="2" y="8" width="1" height="1"/><rect class="c-s" x="3" y="8" width="1" height="1"/><rect class="c-o" x="4" y="8" width="1" height="1"/><rect class="c-r" x="5" y="8" width="5" height="1"/><rect class="c-d" x="10" y="8" width="1" height="1"/><rect class="c-o" x="11" y="8" width="1" height="1"/><rect class="c-s" x="12" y="8" width="1" height="1"/><rect class="c-o" x="13" y="8" width="1" height="1"/><rect class="c-o" x="2" y="9" width="1" height="1"/><rect class="c-s" x="3" y="9" width="1" height="1"/><rect class="c-o" x="4" y="9" width="1" height="1"/><rect class="c-r" x="5" y="9" width="5" height="1"/><rect class="c-d" x="10" y="9" width="1" height="1"/><rect class="c-o" x="11" y="9" width="1" height="1"/><rect class="c-s" x="12" y="9" width="1" height="1"/><rect class="c-o" x="13" y="9" width="1" height="1"/><rect class="c-o" x="3" y="10" width="2" height="1"/><rect class="c-r" x="5" y="10" width="4" height="1"/><rect class="c-d" x="9" y="10" width="2" height="1"/><rect class="c-o" x="11" y="10" width="2" height="1"/><rect class="c-o" x="4" y="11" width="1" height="1"/><rect class="c-b" x="5" y="11" width="6" height="1"/><rect class="c-o" x="11" y="11" width="1" height="1"/><rect class="c-o" x="4" y="12" width="1" height="1"/><rect class="c-b" x="5" y="12" width="2" height="1"/><rect class="c-o" x="7" y="12" width="1" height="1"/><rect class="c-o" x="9" y="12" width="1" height="1"/><rect class="c-b" x="10" y="12" width="2" height="1"/><rect class="c-o" x="12" y="12" width="1" height="1"/><rect class="c-o" x="4" y="13" width="1" height="1"/><rect class="c-b" x="5" y="13" width="2" height="1"/><rect class="c-o" x="7" y="13" width="1" height="1"/><rect class="c-o" x="9" y="13" width="1" height="1"/><rect class="c-b" x="10" y="13" width="2" height="1"/><rect class="c-o" x="12" y="13" width="1" height="1"/><rect class="c-o" x="3" y="14" width="5" height="1"/><rect class="c-o" x="9" y="14" width="5" height="1"/></g></svg>